<mxfile host="Electron" agent="Mozilla/5.0 (Windows NT 10.0; Win64; x64) AppleWebKit/537.36 (KHTML, like Gecko) draw.io/26.2.2 Chrome/134.0.6998.178 Electron/35.1.2 Safari/537.36" version="26.2.2">
  <diagram name="Page-1" id="251157923166">
    <mxGraphModel dx="3598" dy="3425" grid="1" gridSize="10" guides="1" tooltips="1" connect="1" arrows="1" fold="1" page="1" pageScale="1" pageWidth="850" pageHeight="1100" math="0" shadow="0">
      <root>
        <mxCell id="0" />
        <mxCell id="1" parent="0" />
        <mxCell id="210996011825" value="AttackState&lt;div&gt;&amp;lt;&amp;lt;EnemyStateBase&amp;gt;&amp;gt;&lt;/div&gt;" style="swimlane;whiteSpace=wrap;rounded=0;dashed=0;fontStyle=1;childLayout=stackLayout;startSize=40;horizontalStack=0;horizontal=1;resizeParent=1;resizeParentMax=0;resizeLast=0;collapsible=1;marginButtom=0;html=1;align=center;verticalAlign=top;marginBottom=0;fillColor=#fff2cc;strokeColor=#d6b656;" parent="1" vertex="1">
          <mxGeometry x="-480" y="610" width="295" height="170" as="geometry" />
        </mxCell>
        <mxCell id="415583602400" value="- lastAttackTime: float&lt;br/&gt;- rb: Rigidbody" style="text;whiteSpace=wrap;rounded=0;fillColor=none;strokeColor=none;dashed=0;align=left;verticalAlign=top;spacingLeft=4;spacingRight=4;overflow=hidden;rotatable=0;points=[[0,0.5],[1,0.5]];portConstraint=eastwest;html=1;" parent="210996011825" vertex="1">
          <mxGeometry y="40" width="295" height="40" as="geometry" />
        </mxCell>
        <mxCell id="323671760648" value="" style="line;whiteSpace=wrap;rounded=0;fillColor=none;strokeColor=inherit;dashed=0;strokeWidth=1;align=left;verticalAlign=middle;spacingTop=-1;spacingLeft=3;spacingRight=3;rotatable=0;labelPosition=right;points=[];portConstraint=eastwest;" parent="210996011825" vertex="1">
          <mxGeometry y="80" width="295" height="2" as="geometry" />
        </mxCell>
        <mxCell id="276907971030" value="+ Enter(): void&lt;br/&gt;+ FixedUpdate(): void&lt;br/&gt;+ Update(): void&lt;br/&gt;- ApplyDamageAfterDelay(float delay): UniTaskVoid&lt;br/&gt;- Attack(): void" style="text;whiteSpace=wrap;rounded=0;fillColor=none;strokeColor=none;dashed=0;align=left;verticalAlign=top;spacingLeft=4;spacingRight=4;overflow=hidden;rotatable=0;points=[[0,0.5],[1,0.5]];portConstraint=eastwest;html=1;" parent="210996011825" vertex="1">
          <mxGeometry y="82" width="295" height="88" as="geometry" />
        </mxCell>
        <mxCell id="199838551147" value="Bullet&lt;div&gt;&amp;lt;&amp;lt;MonoBehaviour&amp;gt;&amp;gt;&lt;/div&gt;" style="swimlane;whiteSpace=wrap;rounded=0;dashed=0;fontStyle=1;childLayout=stackLayout;startSize=40;horizontalStack=0;horizontal=1;resizeParent=1;resizeParentMax=0;resizeLast=0;collapsible=1;marginButtom=0;html=1;align=center;verticalAlign=top;marginBottom=0;fillColor=#e1d5e7;strokeColor=#9673a6;" parent="1" vertex="1">
          <mxGeometry x="-1310" y="-540" width="550" height="220" as="geometry" />
        </mxCell>
        <mxCell id="224143062385" value="- damage: float&lt;br/&gt;- lifetime: float&lt;br/&gt;- lifeTimer: float&lt;br/&gt;- pool: ObjectPool&amp;lt;Bullet&amp;gt;&lt;br/&gt;- rb: Rigidbody&lt;br/&gt;- trail: TrailRenderer" style="text;whiteSpace=wrap;rounded=0;fillColor=none;strokeColor=none;dashed=0;align=left;verticalAlign=top;spacingLeft=4;spacingRight=4;overflow=hidden;rotatable=0;points=[[0,0.5],[1,0.5]];portConstraint=eastwest;html=1;" parent="199838551147" vertex="1">
          <mxGeometry y="40" width="550" height="80" as="geometry" />
        </mxCell>
        <mxCell id="309119964411" value="" style="line;whiteSpace=wrap;rounded=0;fillColor=none;strokeColor=inherit;dashed=0;strokeWidth=1;align=left;verticalAlign=middle;spacingTop=-1;spacingLeft=3;spacingRight=3;rotatable=0;labelPosition=right;points=[];portConstraint=eastwest;" parent="199838551147" vertex="1">
          <mxGeometry y="120" width="550" height="2" as="geometry" />
        </mxCell>
        <mxCell id="105975818115" value="+ Initialize(Vector3 direction, float speed, float bulletDamage, ObjectPool&amp;lt;Bullet&amp;gt; bulletPool): void&lt;br/&gt;- OnEnable(): void&lt;br/&gt;- OnTriggerEnter(Collider other): void&lt;br/&gt;- ReturnToPool(): void&lt;br/&gt;- Update(): void" style="text;whiteSpace=wrap;rounded=0;fillColor=none;strokeColor=none;dashed=0;align=left;verticalAlign=top;spacingLeft=4;spacingRight=4;overflow=hidden;rotatable=0;points=[[0,0.5],[1,0.5]];portConstraint=eastwest;html=1;" parent="199838551147" vertex="1">
          <mxGeometry y="122" width="550" height="98" as="geometry" />
        </mxCell>
        <mxCell id="211703641504" value="BulletConfig&lt;div&gt;&amp;lt;&amp;lt;ScriptableObject&amp;gt;&amp;gt;&lt;/div&gt;" style="swimlane;whiteSpace=wrap;rounded=0;dashed=0;fontStyle=1;childLayout=stackLayout;startSize=40;horizontalStack=0;horizontal=1;resizeParent=1;resizeParentMax=0;resizeLast=0;collapsible=1;marginButtom=0;html=1;align=center;verticalAlign=top;marginBottom=0;fillColor=#e1d5e7;strokeColor=#9673a6;" parent="1" vertex="1">
          <mxGeometry x="-90" y="-800" width="170" height="140" as="geometry" />
        </mxCell>
        <mxCell id="296504130988" value="+ bulletCount: int&lt;br/&gt;+ bulletDamage: float&lt;br/&gt;+ bulletLifetime: float&lt;br/&gt;+ bulletPrefab: GameObject&lt;br/&gt;+ bulletSpeed: float&lt;br/&gt;+ shootCooldown: float" style="text;whiteSpace=wrap;rounded=0;fillColor=none;strokeColor=none;dashed=0;align=left;verticalAlign=top;spacingLeft=4;spacingRight=4;overflow=hidden;rotatable=0;points=[[0,0.5],[1,0.5]];portConstraint=eastwest;html=1;" parent="211703641504" vertex="1">
          <mxGeometry y="40" width="170" height="100" as="geometry" />
        </mxCell>
        <mxCell id="817786290282" value="CameraController&lt;div&gt;&amp;lt;&amp;lt;MonoBehaviour&amp;gt;&amp;gt;&lt;/div&gt;" style="swimlane;whiteSpace=wrap;rounded=0;dashed=0;fontStyle=1;childLayout=stackLayout;startSize=40;horizontalStack=0;horizontal=1;resizeParent=1;resizeParentMax=0;resizeLast=0;collapsible=1;marginButtom=0;html=1;align=center;verticalAlign=top;marginBottom=0;fillColor=#f5f5f5;fontColor=#333333;strokeColor=#666666;" parent="1" vertex="1">
          <mxGeometry x="1100" y="-1150" width="300" height="280" as="geometry" />
        </mxCell>
        <mxCell id="172046449535" value="- currentMode: CameraMode&lt;br/&gt;- followOffset: Vector3&lt;br/&gt;- followSpeed: float&lt;br/&gt;- lookAheadDistance: float&lt;br/&gt;- mainCamera: Camera&lt;br/&gt;- rotationSpeed: float&lt;br/&gt;- targetTransform: Transform&lt;br/&gt;- transitionDuration: float&lt;br/&gt;- velocity: Vector3" style="text;whiteSpace=wrap;rounded=0;fillColor=none;strokeColor=none;dashed=0;align=left;verticalAlign=top;spacingLeft=4;spacingRight=4;overflow=hidden;rotatable=0;points=[[0,0.5],[1,0.5]];portConstraint=eastwest;html=1;" parent="817786290282" vertex="1">
          <mxGeometry y="40" width="300" height="140" as="geometry" />
        </mxCell>
        <mxCell id="139643926338" value="" style="line;whiteSpace=wrap;rounded=0;fillColor=none;strokeColor=inherit;dashed=0;strokeWidth=1;align=left;verticalAlign=middle;spacingTop=-1;spacingLeft=3;spacingRight=3;rotatable=0;labelPosition=right;points=[];portConstraint=eastwest;" parent="817786290282" vertex="1">
          <mxGeometry y="180" width="300" height="2" as="geometry" />
        </mxCell>
        <mxCell id="278508373225" value="+ MoveToFollowPosition(): UniTask&lt;br/&gt;+ SwitchToFollowMode(Transform target): UniTask&lt;br/&gt;- Construct(): void&lt;br/&gt;- LateUpdate(): void&lt;br/&gt;- Start(): void&lt;br/&gt;- UpdateFollowPosition(): void" style="text;whiteSpace=wrap;rounded=0;fillColor=none;strokeColor=none;dashed=0;align=left;verticalAlign=top;spacingLeft=4;spacingRight=4;overflow=hidden;rotatable=0;points=[[0,0.5],[1,0.5]];portConstraint=eastwest;html=1;" parent="817786290282" vertex="1">
          <mxGeometry y="182" width="300" height="98" as="geometry" />
        </mxCell>
        <mxCell id="323832051178" value="CameraMode&lt;div&gt;&amp;lt;&amp;lt;Enum&amp;gt;&amp;gt;&lt;/div&gt;" style="swimlane;whiteSpace=wrap;rounded=0;dashed=0;fontStyle=1;childLayout=stackLayout;startSize=40;horizontalStack=0;horizontal=1;resizeParent=1;resizeParentMax=0;resizeLast=0;collapsible=1;marginButtom=0;html=1;align=center;verticalAlign=top;marginBottom=0;fillColor=#f5f5f5;fontColor=#333333;strokeColor=#666666;" parent="1" vertex="1">
          <mxGeometry x="1430" y="-1080" width="120" height="120" as="geometry" />
        </mxCell>
        <mxCell id="199339358009" value="+ Follow: CameraMode&lt;br/&gt;+ Initial: CameraMode&lt;br/&gt;+ MoveToFollow: CameraMode&lt;br/&gt;+ value__: int" style="text;whiteSpace=wrap;rounded=0;fillColor=none;strokeColor=none;dashed=0;align=left;verticalAlign=top;spacingLeft=4;spacingRight=4;overflow=hidden;rotatable=0;points=[[0,0.5],[1,0.5]];portConstraint=eastwest;html=1;" parent="323832051178" vertex="1">
          <mxGeometry y="40" width="120" height="80" as="geometry" />
        </mxCell>
        <mxCell id="203980319369" value="CarConfig&lt;div&gt;&amp;lt;&amp;lt;ScriptableObject&amp;gt;&amp;gt;&lt;/div&gt;" style="swimlane;whiteSpace=wrap;rounded=0;dashed=0;fontStyle=1;childLayout=stackLayout;startSize=40;horizontalStack=0;horizontal=1;resizeParent=1;resizeParentMax=0;resizeLast=0;collapsible=1;marginButtom=0;html=1;align=center;verticalAlign=top;marginBottom=0;fillColor=#e1d5e7;strokeColor=#9673a6;" parent="1" vertex="1">
          <mxGeometry x="-70" y="-970" width="150" height="130" as="geometry" />
        </mxCell>
        <mxCell id="163557775239" value="+ acceleration: float&lt;br/&gt;+ maxHP: float&lt;br/&gt;+ moveSpeed: float&lt;br/&gt;+ returnSpeed: float&lt;br/&gt;+ steeringFactor: float" style="text;whiteSpace=wrap;rounded=0;fillColor=none;strokeColor=none;dashed=0;align=left;verticalAlign=top;spacingLeft=4;spacingRight=4;overflow=hidden;rotatable=0;points=[[0,0.5],[1,0.5]];portConstraint=eastwest;html=1;" parent="203980319369" vertex="1">
          <mxGeometry y="40" width="150" height="90" as="geometry" />
        </mxCell>
        <mxCell id="128960648202" value="CarController&lt;div&gt;&amp;lt;&amp;lt;MonoBehaviour&amp;gt;&amp;gt;&lt;/div&gt;" style="swimlane;whiteSpace=wrap;rounded=0;dashed=0;fontStyle=1;childLayout=stackLayout;startSize=40;horizontalStack=0;horizontal=1;resizeParent=1;resizeParentMax=0;resizeLast=0;collapsible=1;marginButtom=0;html=1;align=center;verticalAlign=top;marginBottom=0;fillColor=#e1d5e7;strokeColor=#9673a6;" parent="1" vertex="1">
          <mxGeometry x="-500" y="-1045" width="270" height="280" as="geometry" />
        </mxCell>
        <mxCell id="170552724049" value="+- CurrentHP: float&lt;br/&gt;+- IsMoving: bool&lt;br/&gt;+- Transform: Transform&lt;br/&gt;- config: CarConfig&lt;br/&gt;- initialPosition: Vector3&lt;br/&gt;- rb: Rigidbody" style="text;whiteSpace=wrap;rounded=0;fillColor=none;strokeColor=none;dashed=0;align=left;verticalAlign=top;spacingLeft=4;spacingRight=4;overflow=hidden;rotatable=0;points=[[0,0.5],[1,0.5]];portConstraint=eastwest;html=1;" parent="128960648202" vertex="1">
          <mxGeometry y="40" width="270" height="100" as="geometry" />
        </mxCell>
        <mxCell id="305132365892" value="" style="line;whiteSpace=wrap;rounded=0;fillColor=none;strokeColor=inherit;dashed=0;strokeWidth=1;align=left;verticalAlign=middle;spacingTop=-1;spacingLeft=3;spacingRight=3;rotatable=0;labelPosition=right;points=[];portConstraint=eastwest;" parent="128960648202" vertex="1">
          <mxGeometry y="140" width="270" height="2" as="geometry" />
        </mxCell>
        <mxCell id="210102474856" value="+ StartMoving(): UniTask&lt;br/&gt;+ Stop(): void&lt;br/&gt;+ TakeDamage(float damage, Vector3 attackerPosition, float pushForce): void&lt;br/&gt;- Awake(): void&lt;br/&gt;- Construct(CarConfig carConfig): void&lt;br/&gt;- FixedUpdate(): void&lt;br/&gt;- OnEnable(): void&lt;br/&gt;- Start(): void" style="text;whiteSpace=wrap;rounded=0;fillColor=none;strokeColor=none;dashed=0;align=left;verticalAlign=top;spacingLeft=4;spacingRight=4;overflow=hidden;rotatable=0;points=[[0,0.5],[1,0.5]];portConstraint=eastwest;html=1;" parent="128960648202" vertex="1">
          <mxGeometry y="142" width="270" height="138" as="geometry" />
        </mxCell>
        <mxCell id="328420183566" value="CarHealthUI&lt;div&gt;&amp;lt;&amp;lt;MonoBehaviour&amp;gt;&amp;gt;&lt;/div&gt;" style="swimlane;whiteSpace=wrap;rounded=0;dashed=0;fontStyle=1;childLayout=stackLayout;startSize=40;horizontalStack=0;horizontal=1;resizeParent=1;resizeParentMax=0;resizeLast=0;collapsible=1;marginButtom=0;html=1;align=center;verticalAlign=top;marginBottom=0;fillColor=#d5e8d4;strokeColor=#82b366;" parent="1" vertex="1">
          <mxGeometry x="2260" y="140" width="230" height="170" as="geometry" />
        </mxCell>
        <mxCell id="147332326194" value="- fillImage: Image&lt;br/&gt;- healthGradient: Gradient&lt;br/&gt;- healthSlider: Slider" style="text;whiteSpace=wrap;rounded=0;fillColor=none;strokeColor=none;dashed=0;align=left;verticalAlign=top;spacingLeft=4;spacingRight=4;overflow=hidden;rotatable=0;points=[[0,0.5],[1,0.5]];portConstraint=eastwest;html=1;" parent="328420183566" vertex="1">
          <mxGeometry y="40" width="230" height="60" as="geometry" />
        </mxCell>
        <mxCell id="339564580557" value="" style="line;whiteSpace=wrap;rounded=0;fillColor=none;strokeColor=inherit;dashed=0;strokeWidth=1;align=left;verticalAlign=middle;spacingTop=-1;spacingLeft=3;spacingRight=3;rotatable=0;labelPosition=right;points=[];portConstraint=eastwest;" parent="328420183566" vertex="1">
          <mxGeometry y="100" width="230" height="2" as="geometry" />
        </mxCell>
        <mxCell id="522375164040" value="+ Initialize(float maxHP): void&lt;br/&gt;- OnDisable(): void&lt;br/&gt;- OnEnable(): void&lt;br/&gt;- UpdateHealthBar(float currentHP): void" style="text;whiteSpace=wrap;rounded=0;fillColor=none;strokeColor=none;dashed=0;align=left;verticalAlign=top;spacingLeft=4;spacingRight=4;overflow=hidden;rotatable=0;points=[[0,0.5],[1,0.5]];portConstraint=eastwest;html=1;" parent="328420183566" vertex="1">
          <mxGeometry y="102" width="230" height="68" as="geometry" />
        </mxCell>
        <mxCell id="511043860435" value="ChaseState&lt;div&gt;&amp;lt;&amp;lt;EnemyStateBase&amp;gt;&amp;gt;&lt;/div&gt;" style="swimlane;whiteSpace=wrap;rounded=0;dashed=0;fontStyle=1;childLayout=stackLayout;startSize=40;horizontalStack=0;horizontal=1;resizeParent=1;resizeParentMax=0;resizeLast=0;collapsible=1;marginButtom=0;html=1;align=center;verticalAlign=top;marginBottom=0;fillColor=#fff2cc;strokeColor=#d6b656;" parent="1" vertex="1">
          <mxGeometry x="-155" y="610" width="140" height="152" as="geometry" />
        </mxCell>
        <mxCell id="105732460622" value="- rb: Rigidbody" style="text;whiteSpace=wrap;rounded=0;fillColor=none;strokeColor=none;dashed=0;align=left;verticalAlign=top;spacingLeft=4;spacingRight=4;overflow=hidden;rotatable=0;points=[[0,0.5],[1,0.5]];portConstraint=eastwest;html=1;" parent="511043860435" vertex="1">
          <mxGeometry y="40" width="140" height="30" as="geometry" />
        </mxCell>
        <mxCell id="285901030670" value="" style="line;whiteSpace=wrap;rounded=0;fillColor=none;strokeColor=inherit;dashed=0;strokeWidth=1;align=left;verticalAlign=middle;spacingTop=-1;spacingLeft=3;spacingRight=3;rotatable=0;labelPosition=right;points=[];portConstraint=eastwest;" parent="511043860435" vertex="1">
          <mxGeometry y="70" width="140" height="2" as="geometry" />
        </mxCell>
        <mxCell id="117038579963" value="+ Enter(): void&lt;br/&gt;+ Exit(): void&lt;br/&gt;+ FixedUpdate(): void&lt;br/&gt;+ Update(): void" style="text;whiteSpace=wrap;rounded=0;fillColor=none;strokeColor=none;dashed=0;align=left;verticalAlign=top;spacingLeft=4;spacingRight=4;overflow=hidden;rotatable=0;points=[[0,0.5],[1,0.5]];portConstraint=eastwest;html=1;" parent="511043860435" vertex="1">
          <mxGeometry y="72" width="140" height="80" as="geometry" />
        </mxCell>
        <mxCell id="102489454053" value="EnemyConfig&lt;div&gt;&amp;lt;&amp;lt;ScriptableObject&amp;gt;&amp;gt;&lt;/div&gt;" style="swimlane;whiteSpace=wrap;rounded=0;dashed=0;fontStyle=1;childLayout=stackLayout;startSize=40;horizontalStack=0;horizontal=1;resizeParent=1;resizeParentMax=0;resizeLast=0;collapsible=1;marginButtom=0;html=1;align=center;verticalAlign=top;marginBottom=0;fillColor=#f8cecc;strokeColor=#b85450;" parent="1" vertex="1">
          <mxGeometry x="100" y="-568" width="200" height="170" as="geometry" />
        </mxCell>
        <mxCell id="106479184857" value="+ attackCooldown: float&lt;br/&gt;+ attackDamage: float&lt;br/&gt;+ attackRange: float&lt;br/&gt;+ chaseSpeed: float&lt;br/&gt;+ detectionRange: float&lt;br/&gt;+ enemyPrefab: GameObject&lt;br/&gt;+ maxHP: float&lt;br/&gt;+ pushForce: float" style="text;whiteSpace=wrap;rounded=0;fillColor=none;strokeColor=none;dashed=0;align=left;verticalAlign=top;spacingLeft=4;spacingRight=4;overflow=hidden;rotatable=0;points=[[0,0.5],[1,0.5]];portConstraint=eastwest;html=1;" parent="102489454053" vertex="1">
          <mxGeometry y="40" width="200" height="130" as="geometry" />
        </mxCell>
        <mxCell id="872615278412" value="EnemyController&lt;div&gt;&amp;lt;&amp;lt;MonoBehaviour&amp;gt;&amp;gt;&lt;/div&gt;" style="swimlane;whiteSpace=wrap;rounded=0;dashed=0;fontStyle=1;childLayout=stackLayout;startSize=40;horizontalStack=0;horizontal=1;resizeParent=1;resizeParentMax=0;resizeLast=0;collapsible=1;marginButtom=0;html=1;align=center;verticalAlign=top;marginBottom=0;fillColor=#f8cecc;strokeColor=#b85450;" parent="1" vertex="1">
          <mxGeometry x="-340" y="-360" width="460" height="540" as="geometry" />
        </mxCell>
        <mxCell id="153295878021" value="+- Config: EnemyConfig&lt;br/&gt;+- DistanceToTarget: float&lt;br/&gt;+- Target: Transform&lt;br/&gt;- animator: Animator&lt;br/&gt;- currentHP: float&lt;br/&gt;- currentState: IEnemyState&lt;br/&gt;- deathEffect: ParticleSystem&lt;br/&gt;- deathEffectDuration: float&lt;br/&gt;- isActive: bool&lt;br/&gt;- model: GameObject&lt;br/&gt;- pool: ObjectPool&amp;lt;EnemyController&amp;gt;&lt;br/&gt;- rb: Rigidbody&lt;br/&gt;- rotationSpeed: float&lt;br/&gt;- sendToPoolIfBackward: float&lt;br/&gt;- sphereCollider: SphereCollider&lt;br/&gt;- states: Dictionary&amp;lt;EnemyStateType, IEnemyState&amp;gt;" style="text;whiteSpace=wrap;rounded=0;fillColor=none;strokeColor=none;dashed=0;align=left;verticalAlign=top;spacingLeft=4;spacingRight=4;overflow=hidden;rotatable=0;points=[[0,0.5],[1,0.5]];portConstraint=eastwest;html=1;" parent="872615278412" vertex="1">
          <mxGeometry y="40" width="460" height="240" as="geometry" />
        </mxCell>
        <mxCell id="211549204136" value="" style="line;whiteSpace=wrap;rounded=0;fillColor=none;strokeColor=inherit;dashed=0;strokeWidth=1;align=left;verticalAlign=middle;spacingTop=-1;spacingLeft=3;spacingRight=3;rotatable=0;labelPosition=right;points=[];portConstraint=eastwest;" parent="872615278412" vertex="1">
          <mxGeometry y="280" width="460" height="2" as="geometry" />
        </mxCell>
        <mxCell id="897407188295" value="+ ChangeState(EnemyStateType stateType): void&lt;br/&gt;+ Initialize(Vector3 spawnPosition, ObjectPool&amp;lt;EnemyController&amp;gt; objectPool): void&lt;br/&gt;+ LookAtTarget(): void&lt;br/&gt;+ SetAnimation(string animationName): void&lt;br/&gt;+ SetPool(ObjectPool&amp;lt;EnemyController&amp;gt; objectPool): void&lt;br/&gt;+ SetTarget(Transform newTarget): void&lt;br/&gt;+ TakeDamage(float damage): UniTask&lt;br/&gt;- Awake(): void&lt;br/&gt;- Construct(EnemyConfig enemyConfig): void&lt;br/&gt;- Die(): UniTask&lt;br/&gt;- FixedUpdate(): void&lt;br/&gt;- InitializeStateMachine(): void&lt;br/&gt;- ResetParticleSystems(): void&lt;br/&gt;- ReturnToPool(): void&lt;br/&gt;- Start(): void&lt;br/&gt;- Update(): void" style="text;whiteSpace=wrap;rounded=0;fillColor=none;strokeColor=none;dashed=0;align=left;verticalAlign=top;spacingLeft=4;spacingRight=4;overflow=hidden;rotatable=0;points=[[0,0.5],[1,0.5]];portConstraint=eastwest;html=1;" parent="872615278412" vertex="1">
          <mxGeometry y="282" width="460" height="258" as="geometry" />
        </mxCell>
        <mxCell id="189912781963" value="EnemySpawner&lt;div&gt;&amp;lt;&amp;lt;MonoBehaviour&amp;gt;&amp;gt;&lt;/div&gt;" style="swimlane;whiteSpace=wrap;rounded=0;dashed=0;fontStyle=1;childLayout=stackLayout;startSize=40;horizontalStack=0;horizontal=1;resizeParent=1;resizeParentMax=0;resizeLast=0;collapsible=1;marginButtom=0;html=1;align=center;verticalAlign=top;marginBottom=0;fillColor=#f8cecc;strokeColor=#b85450;" parent="1" vertex="1">
          <mxGeometry x="150" y="-265" width="360" height="350" as="geometry" />
        </mxCell>
        <mxCell id="161232471240" value="- carTransform: Transform&lt;br/&gt;- container: IObjectResolver&lt;br/&gt;- enemiesRemaining: int&lt;br/&gt;- enemyConfig: EnemyConfig&lt;br/&gt;- enemyPool: ObjectPool&amp;lt;EnemyController&amp;gt;&lt;br/&gt;- gameConfig: GameConfig&lt;br/&gt;- isSpawning: bool&lt;br/&gt;- lastSpawnTime: float&lt;br/&gt;- spawnedEnemies: int" style="text;whiteSpace=wrap;rounded=0;fillColor=none;strokeColor=none;dashed=0;align=left;verticalAlign=top;spacingLeft=4;spacingRight=4;overflow=hidden;rotatable=0;points=[[0,0.5],[1,0.5]];portConstraint=eastwest;html=1;" parent="189912781963" vertex="1">
          <mxGeometry y="40" width="360" height="140" as="geometry" />
        </mxCell>
        <mxCell id="320752216825" value="" style="line;whiteSpace=wrap;rounded=0;fillColor=none;strokeColor=inherit;dashed=0;strokeWidth=1;align=left;verticalAlign=middle;spacingTop=-1;spacingLeft=3;spacingRight=3;rotatable=0;labelPosition=right;points=[];portConstraint=eastwest;" parent="189912781963" vertex="1">
          <mxGeometry y="180" width="360" height="2" as="geometry" />
        </mxCell>
        <mxCell id="111193728563" value="+ SpawnEnemies(Transform target): void&lt;br/&gt;+ StopSpawning(): void&lt;br/&gt;- Construct(GameConfig config, EnemyConfig enemyConfig, IObjectResolver resolver): void&lt;br/&gt;- GetRandomSpawnPosition(float zPosition): Vector3&lt;br/&gt;- InitializeObjectPool(): void&lt;br/&gt;- OnDestroy(): void&lt;br/&gt;- OnEnemyKilled(int count): void&lt;br/&gt;- SpawnEnemy(): void&lt;br/&gt;- Start(): void&lt;br/&gt;- Update(): void" style="text;whiteSpace=wrap;rounded=0;fillColor=none;strokeColor=none;dashed=0;align=left;verticalAlign=top;spacingLeft=4;spacingRight=4;overflow=hidden;rotatable=0;points=[[0,0.5],[1,0.5]];portConstraint=eastwest;html=1;" parent="189912781963" vertex="1">
          <mxGeometry y="182" width="360" height="168" as="geometry" />
        </mxCell>
        <mxCell id="169417324144" value="EnemyStateBase" style="swimlane;whiteSpace=wrap;rounded=0;dashed=0;fontStyle=1;childLayout=stackLayout;startSize=40;horizontalStack=0;horizontal=1;resizeParent=1;resizeParentMax=0;resizeLast=0;collapsible=1;marginButtom=0;html=1;align=center;verticalAlign=top;marginBottom=0;fillColor=#fff2cc;strokeColor=#d6b656;" parent="1" vertex="1">
          <mxGeometry x="-185" y="400" width="200" height="152" as="geometry" />
        </mxCell>
        <mxCell id="159016302590" value="~ enemy: EnemyController" style="text;whiteSpace=wrap;rounded=0;fillColor=none;strokeColor=none;dashed=0;align=left;verticalAlign=top;spacingLeft=4;spacingRight=4;overflow=hidden;rotatable=0;points=[[0,0.5],[1,0.5]];portConstraint=eastwest;html=1;" parent="169417324144" vertex="1">
          <mxGeometry y="40" width="200" height="30" as="geometry" />
        </mxCell>
        <mxCell id="115130443905" value="" style="line;whiteSpace=wrap;rounded=0;fillColor=none;strokeColor=inherit;dashed=0;strokeWidth=1;align=left;verticalAlign=middle;spacingTop=-1;spacingLeft=3;spacingRight=3;rotatable=0;labelPosition=right;points=[];portConstraint=eastwest;" parent="169417324144" vertex="1">
          <mxGeometry y="70" width="200" height="2" as="geometry" />
        </mxCell>
        <mxCell id="986258307854" value="+ Enter(): void&lt;br/&gt;+ Exit(): void&lt;br/&gt;+ FixedUpdate(): void&lt;br/&gt;+ Update(): void" style="text;whiteSpace=wrap;rounded=0;fillColor=none;strokeColor=none;dashed=0;align=left;verticalAlign=top;spacingLeft=4;spacingRight=4;overflow=hidden;rotatable=0;points=[[0,0.5],[1,0.5]];portConstraint=eastwest;html=1;" parent="169417324144" vertex="1">
          <mxGeometry y="72" width="200" height="80" as="geometry" />
        </mxCell>
        <mxCell id="102543871915" value="EnemyStateType&lt;div&gt;&amp;lt;&amp;lt;Enum&amp;gt;&amp;gt;&lt;/div&gt;" style="swimlane;whiteSpace=wrap;rounded=0;dashed=0;fontStyle=1;childLayout=stackLayout;startSize=40;horizontalStack=0;horizontal=1;resizeParent=1;resizeParentMax=0;resizeLast=0;collapsible=1;marginButtom=0;html=1;align=center;verticalAlign=top;marginBottom=0;fillColor=#fff2cc;strokeColor=#d6b656;" parent="1" vertex="1">
          <mxGeometry x="40" y="212" width="200" height="120" as="geometry" />
        </mxCell>
        <mxCell id="106555192507" value="+ Attack: EnemyStateType&lt;br/&gt;+ Chase: EnemyStateType&lt;br/&gt;+ Idle: EnemyStateType&lt;br/&gt;+ value__: int" style="text;whiteSpace=wrap;rounded=0;fillColor=none;strokeColor=none;dashed=0;align=left;verticalAlign=top;spacingLeft=4;spacingRight=4;overflow=hidden;rotatable=0;points=[[0,0.5],[1,0.5]];portConstraint=eastwest;html=1;" parent="102543871915" vertex="1">
          <mxGeometry y="40" width="200" height="80" as="geometry" />
        </mxCell>
        <mxCell id="162779053042" value="GameConfig&lt;div&gt;&amp;lt;&amp;lt;ScriptableObject&amp;gt;&amp;gt;&lt;/div&gt;" style="swimlane;whiteSpace=wrap;rounded=0;dashed=0;fontStyle=1;childLayout=stackLayout;startSize=40;horizontalStack=0;horizontal=1;resizeParent=1;resizeParentMax=0;resizeLast=0;collapsible=1;marginButtom=0;html=1;align=center;verticalAlign=top;marginBottom=0;fillColor=#dae8fc;strokeColor=#6c8ebf;" parent="1" vertex="1">
          <mxGeometry x="710" y="-1380" width="220" height="140" as="geometry" />
        </mxCell>
        <mxCell id="303566672109" value="+ enemyCount: int&lt;br/&gt;+ enemySpawnRangeX: Vector2&lt;br/&gt;+ enemySpawnRangeY: Vector2&lt;br/&gt;+ levelLength: float&lt;br/&gt;+ spawnInterval: float" style="text;whiteSpace=wrap;rounded=0;fillColor=none;strokeColor=none;dashed=0;align=left;verticalAlign=top;spacingLeft=4;spacingRight=4;overflow=hidden;rotatable=0;points=[[0,0.5],[1,0.5]];portConstraint=eastwest;html=1;" parent="162779053042" vertex="1">
          <mxGeometry y="40" width="220" height="100" as="geometry" />
        </mxCell>
        <mxCell id="301850197979" value="GameEvents" style="swimlane;whiteSpace=wrap;rounded=0;dashed=0;fontStyle=1;childLayout=stackLayout;startSize=40;horizontalStack=0;horizontal=1;resizeParent=1;resizeParentMax=0;resizeLast=0;collapsible=1;marginButtom=0;html=1;align=center;verticalAlign=top;marginBottom=0;fillColor=#dae8fc;strokeColor=#6c8ebf;" parent="1" vertex="1">
          <mxGeometry x="1600" y="-510" width="320" height="250" as="geometry" />
        </mxCell>
        <mxCell id="120733812024" value="- OnBulletCountChanged: Action&amp;lt;int&amp;gt;&lt;br/&gt;- OnCarDestroyed: Action&lt;br/&gt;- OnCarHPChanged: Action&amp;lt;float&amp;gt;&lt;br/&gt;- OnEnemyKilled: Action&amp;lt;int&amp;gt;&lt;br/&gt;- OnGameStateChanged: Action&amp;lt;GameState&amp;gt;&lt;br/&gt;- OnLevelCompleted: Action" style="text;whiteSpace=wrap;rounded=0;fillColor=none;strokeColor=none;dashed=0;align=left;verticalAlign=top;spacingLeft=4;spacingRight=4;overflow=hidden;rotatable=0;points=[[0,0.5],[1,0.5]];portConstraint=eastwest;html=1;" parent="301850197979" vertex="1">
          <mxGeometry y="40" width="320" height="100" as="geometry" />
        </mxCell>
        <mxCell id="735118176890" value="" style="line;whiteSpace=wrap;rounded=0;fillColor=none;strokeColor=inherit;dashed=0;strokeWidth=1;align=left;verticalAlign=middle;spacingTop=-1;spacingLeft=3;spacingRight=3;rotatable=0;labelPosition=right;points=[];portConstraint=eastwest;" parent="301850197979" vertex="1">
          <mxGeometry y="140" width="320" height="2" as="geometry" />
        </mxCell>
        <mxCell id="566896273062" value="+ BulletCountChanged(int count): void&lt;br/&gt;+ CarDestroyed(): void&lt;br/&gt;+ CarHPChanged(float newHP): void&lt;br/&gt;+ EnemyKilled(int count): void&lt;br/&gt;+ GameStateChanged(GameState newState): void&lt;br/&gt;+ LevelCompleted(): void" style="text;whiteSpace=wrap;rounded=0;fillColor=none;strokeColor=none;dashed=0;align=left;verticalAlign=top;spacingLeft=4;spacingRight=4;overflow=hidden;rotatable=0;points=[[0,0.5],[1,0.5]];portConstraint=eastwest;html=1;" parent="301850197979" vertex="1">
          <mxGeometry y="142" width="320" height="108" as="geometry" />
        </mxCell>
        <mxCell id="218585585927" value="GameInstaller&lt;div&gt;&amp;lt;&amp;lt;LifetimeScope&amp;gt;&amp;gt;&lt;/div&gt;" style="swimlane;whiteSpace=wrap;rounded=0;dashed=0;fontStyle=1;childLayout=stackLayout;startSize=40;horizontalStack=0;horizontal=1;resizeParent=1;resizeParentMax=0;resizeLast=0;collapsible=1;marginButtom=0;html=1;align=center;verticalAlign=top;marginBottom=0;fillColor=#dae8fc;strokeColor=#6c8ebf;" parent="1" vertex="1">
          <mxGeometry x="365" y="-1430" width="310" height="260" as="geometry" />
        </mxCell>
        <mxCell id="926008216842" value="- bulletConfig: BulletConfig&lt;br/&gt;- carConfig: CarConfig&lt;br/&gt;- enemyConfig: EnemyConfig&lt;br/&gt;- gameConfig: GameConfig&lt;br/&gt;- inputManager: InputManager" style="text;whiteSpace=wrap;rounded=0;fillColor=none;strokeColor=none;dashed=0;align=left;verticalAlign=top;spacingLeft=4;spacingRight=4;overflow=hidden;rotatable=0;points=[[0,0.5],[1,0.5]];portConstraint=eastwest;html=1;" parent="218585585927" vertex="1">
          <mxGeometry y="40" width="310" height="90" as="geometry" />
        </mxCell>
        <mxCell id="670448252832" value="" style="line;whiteSpace=wrap;rounded=0;fillColor=none;strokeColor=inherit;dashed=0;strokeWidth=1;align=left;verticalAlign=middle;spacingTop=-1;spacingLeft=3;spacingRight=3;rotatable=0;labelPosition=right;points=[];portConstraint=eastwest;" parent="218585585927" vertex="1">
          <mxGeometry y="130" width="310" height="2" as="geometry" />
        </mxCell>
        <mxCell id="150942659938" value="~ Configure(IContainerBuilder builder): void&lt;br/&gt;- RegisterControllers(IContainerBuilder builder): void&lt;br/&gt;- RegisterFactories(IContainerBuilder builder): void&lt;br/&gt;- RegisterGameSystems(IContainerBuilder builder): void&lt;br/&gt;- RegisterTest(IContainerBuilder builder): void&lt;br/&gt;- RegisterUI(IContainerBuilder builder): void" style="text;whiteSpace=wrap;rounded=0;fillColor=none;strokeColor=none;dashed=0;align=left;verticalAlign=top;spacingLeft=4;spacingRight=4;overflow=hidden;rotatable=0;points=[[0,0.5],[1,0.5]];portConstraint=eastwest;html=1;" parent="218585585927" vertex="1">
          <mxGeometry y="132" width="310" height="128" as="geometry" />
        </mxCell>
        <mxCell id="179958343129" value="GameManager&lt;div&gt;&amp;lt;&amp;lt;MonoBehaviour&amp;gt;&amp;gt;&lt;/div&gt;" style="swimlane;whiteSpace=wrap;rounded=0;dashed=0;fontStyle=1;childLayout=stackLayout;startSize=40;horizontalStack=0;horizontal=1;resizeParent=1;resizeParentMax=0;resizeLast=0;collapsible=1;marginButtom=0;html=1;align=center;verticalAlign=top;marginBottom=0;fillColor=#dae8fc;strokeColor=#6c8ebf;" parent="1" vertex="1">
          <mxGeometry x="900" y="-525" width="390" height="310" as="geometry" />
        </mxCell>
        <mxCell id="190198619797" value="+- CurrentState: GameState&lt;br/&gt;- cameraController: ICameraController&lt;br/&gt;- carController: ICarController&lt;br/&gt;- enemySpawner: EnemySpawner&lt;br/&gt;- gameConfig: GameConfig&lt;br/&gt;- inputHandler: InputHandler&lt;br/&gt;- levelStartZ: float" style="text;whiteSpace=wrap;rounded=0;fillColor=none;strokeColor=none;dashed=0;align=left;verticalAlign=top;spacingLeft=4;spacingRight=4;overflow=hidden;rotatable=0;points=[[0,0.5],[1,0.5]];portConstraint=eastwest;html=1;" parent="179958343129" vertex="1">
          <mxGeometry y="40" width="390" height="110" as="geometry" />
        </mxCell>
        <mxCell id="242560416482" value="" style="line;whiteSpace=wrap;rounded=0;fillColor=none;strokeColor=inherit;dashed=0;strokeWidth=1;align=left;verticalAlign=middle;spacingTop=-1;spacingLeft=3;spacingRight=3;rotatable=0;labelPosition=right;points=[];portConstraint=eastwest;" parent="179958343129" vertex="1">
          <mxGeometry y="150" width="390" height="2" as="geometry" />
        </mxCell>
        <mxCell id="831010340544" value="+ GameOver(bool isWin): void&lt;br/&gt;+ RestartGame(): void&lt;br/&gt;+ StartGame(): UniTask&lt;br/&gt;- ChangeState(GameState newState): void&lt;br/&gt;- Construct(GameConfig config, ICarController car, ICameraController camera, EnemySpawner spawner, InputHandler input): void&lt;br/&gt;- OnCarDestroyed(): void&lt;br/&gt;- OnDestroy(): void&lt;br/&gt;- Start(): void&lt;br/&gt;- Update(): void" style="text;whiteSpace=wrap;rounded=0;fillColor=none;strokeColor=none;dashed=0;align=left;verticalAlign=top;spacingLeft=4;spacingRight=4;overflow=hidden;rotatable=0;points=[[0,0.5],[1,0.5]];portConstraint=eastwest;html=1;" parent="179958343129" vertex="1">
          <mxGeometry y="152" width="390" height="158" as="geometry" />
        </mxCell>
        <mxCell id="106280521368" value="GameState&lt;div&gt;&amp;lt;&amp;lt;Enum&amp;gt;&amp;gt;&lt;/div&gt;" style="swimlane;whiteSpace=wrap;rounded=0;dashed=0;fontStyle=1;childLayout=stackLayout;startSize=40;horizontalStack=0;horizontal=1;resizeParent=1;resizeParentMax=0;resizeLast=0;collapsible=1;marginButtom=0;html=1;align=center;verticalAlign=top;marginBottom=0;fillColor=#dae8fc;strokeColor=#6c8ebf;" parent="1" vertex="1">
          <mxGeometry x="1340" y="-450" width="180" height="130" as="geometry" />
        </mxCell>
        <mxCell id="337505138586" value="+ GameOver: GameState&lt;br/&gt;+ Menu: GameState&lt;br/&gt;+ Playing: GameState&lt;br/&gt;+ value__: int&lt;br/&gt;+ Win: GameState" style="text;whiteSpace=wrap;rounded=0;fillColor=none;strokeColor=none;dashed=0;align=left;verticalAlign=top;spacingLeft=4;spacingRight=4;overflow=hidden;rotatable=0;points=[[0,0.5],[1,0.5]];portConstraint=eastwest;html=1;" parent="106280521368" vertex="1">
          <mxGeometry y="40" width="180" height="90" as="geometry" />
        </mxCell>
        <mxCell id="336514408173" value="GameStatistics&lt;div&gt;&amp;lt;&amp;lt;MonoBehaviour&amp;gt;&amp;gt;&lt;/div&gt;" style="swimlane;whiteSpace=wrap;rounded=0;dashed=0;fontStyle=1;childLayout=stackLayout;startSize=40;horizontalStack=0;horizontal=1;resizeParent=1;resizeParentMax=0;resizeLast=0;collapsible=1;marginButtom=0;html=1;align=center;verticalAlign=top;marginBottom=0;fillColor=#d5e8d4;strokeColor=#82b366;" parent="1" vertex="1">
          <mxGeometry x="2260" y="332" width="280" height="202" as="geometry" />
        </mxCell>
        <mxCell id="241210313199" value="- bulletsFiredText: TextMeshProUGUI&lt;br/&gt;- enemiesKilledText: TextMeshProUGUI&lt;br/&gt;- particlesCreatedText: TextMeshProUGUI&lt;br/&gt;- totalBulletsFired: int&lt;br/&gt;- totalEnemiesKilled: int&lt;br/&gt;- totalParticlesCreated: int&lt;br/&gt;- totalUniTaskCreated: int&lt;br/&gt;- uniTaskCreatedText: TextMeshProUGUI" style="text;whiteSpace=wrap;rounded=0;fillColor=none;strokeColor=none;dashed=0;align=left;verticalAlign=top;spacingLeft=4;spacingRight=4;overflow=hidden;rotatable=0;points=[[0,0.5],[1,0.5]];portConstraint=eastwest;html=1;" parent="336514408173" vertex="1">
          <mxGeometry y="40" width="280" height="80" as="geometry" />
        </mxCell>
        <mxCell id="273464265383" value="" style="line;whiteSpace=wrap;rounded=0;fillColor=none;strokeColor=inherit;dashed=0;strokeWidth=1;align=left;verticalAlign=middle;spacingTop=-1;spacingLeft=3;spacingRight=3;rotatable=0;labelPosition=right;points=[];portConstraint=eastwest;" parent="336514408173" vertex="1">
          <mxGeometry y="120" width="280" height="2" as="geometry" />
        </mxCell>
        <mxCell id="726092018184" value="+ IncrementBulletsFired(): void&lt;br/&gt;+ IncrementEnemiesKilled(): void&lt;br/&gt;+ IncrementParticlesCreated(): void&lt;br/&gt;+ IncrementUniTaskCreated(): void&lt;br/&gt;+ ResetStatistics(): void&lt;br/&gt;- OnEnable(): void" style="text;whiteSpace=wrap;rounded=0;fillColor=none;strokeColor=none;dashed=0;align=left;verticalAlign=top;spacingLeft=4;spacingRight=4;overflow=hidden;rotatable=0;points=[[0,0.5],[1,0.5]];portConstraint=eastwest;html=1;" parent="336514408173" vertex="1">
          <mxGeometry y="122" width="280" height="80" as="geometry" />
        </mxCell>
        <mxCell id="242344450681" value="ICameraController" style="swimlane;whiteSpace=wrap;rounded=0;dashed=0;fontStyle=1;childLayout=stackLayout;startSize=40;horizontalStack=0;horizontal=1;resizeParent=1;resizeParentMax=0;resizeLast=0;collapsible=1;marginButtom=0;html=1;align=center;verticalAlign=top;marginBottom=0;fillColor=#f5f5f5;fontColor=#333333;strokeColor=#666666;" parent="1" vertex="1">
          <mxGeometry x="1100" y="-840" width="290" height="80" as="geometry" />
        </mxCell>
        <mxCell id="147800908416" value="+ SwitchToFollowMode(Transform target): UniTask" style="text;whiteSpace=wrap;rounded=0;fillColor=none;strokeColor=none;dashed=0;align=left;verticalAlign=top;spacingLeft=4;spacingRight=4;overflow=hidden;rotatable=0;points=[[0,0.5],[1,0.5]];portConstraint=eastwest;html=1;" parent="242344450681" vertex="1">
          <mxGeometry y="40" width="290" height="40" as="geometry" />
        </mxCell>
        <mxCell id="251258246801" value="ICarController" style="swimlane;whiteSpace=wrap;rounded=0;dashed=0;fontStyle=1;childLayout=stackLayout;startSize=40;horizontalStack=0;horizontal=1;resizeParent=1;resizeParentMax=0;resizeLast=0;collapsible=1;marginButtom=0;html=1;align=center;verticalAlign=top;marginBottom=0;fillColor=#e1d5e7;strokeColor=#9673a6;" parent="1" vertex="1">
          <mxGeometry x="875" y="32" width="440" height="190" as="geometry" />
        </mxCell>
        <mxCell id="321658961057" value="+- CurrentHP: float&lt;br/&gt;+- IsMoving: bool&lt;br/&gt;+- Transform: Transform" style="text;whiteSpace=wrap;rounded=0;fillColor=none;strokeColor=none;dashed=0;align=left;verticalAlign=top;spacingLeft=4;spacingRight=4;overflow=hidden;rotatable=0;points=[[0,0.5],[1,0.5]];portConstraint=eastwest;html=1;" parent="251258246801" vertex="1">
          <mxGeometry y="40" width="440" height="60" as="geometry" />
        </mxCell>
        <mxCell id="168548665422" value="" style="line;whiteSpace=wrap;rounded=0;fillColor=none;strokeColor=inherit;dashed=0;strokeWidth=1;align=left;verticalAlign=middle;spacingTop=-1;spacingLeft=3;spacingRight=3;rotatable=0;labelPosition=right;points=[];portConstraint=eastwest;" parent="251258246801" vertex="1">
          <mxGeometry y="100" width="440" height="2" as="geometry" />
        </mxCell>
        <mxCell id="172368217701" value="+ StartMoving(): UniTask&lt;br/&gt;+ Stop(): void&lt;br/&gt;+ TakeDamage(float damage, Vector3 attackerPosition, float pushForce): void" style="text;whiteSpace=wrap;rounded=0;fillColor=none;strokeColor=none;dashed=0;align=left;verticalAlign=top;spacingLeft=4;spacingRight=4;overflow=hidden;rotatable=0;points=[[0,0.5],[1,0.5]];portConstraint=eastwest;html=1;" parent="251258246801" vertex="1">
          <mxGeometry y="102" width="440" height="88" as="geometry" />
        </mxCell>
        <mxCell id="380570418505" value="IdleState&lt;div&gt;&amp;lt;&amp;lt;EnemyStateBase&amp;gt;&amp;gt;&lt;/div&gt;" style="swimlane;whiteSpace=wrap;rounded=0;dashed=0;fontStyle=1;childLayout=stackLayout;startSize=40;horizontalStack=0;horizontal=1;resizeParent=1;resizeParentMax=0;resizeLast=0;collapsible=1;marginButtom=0;html=1;align=center;verticalAlign=top;marginBottom=0;fillColor=#fff2cc;strokeColor=#d6b656;" parent="1" vertex="1">
          <mxGeometry x="15" y="610" width="170" height="130" as="geometry" />
        </mxCell>
        <mxCell id="774555974238" value="- detectionCheckInterval: float&lt;br/&gt;- lastCheckTime: float" style="text;whiteSpace=wrap;rounded=0;fillColor=none;strokeColor=none;dashed=0;align=left;verticalAlign=top;spacingLeft=4;spacingRight=4;overflow=hidden;rotatable=0;points=[[0,0.5],[1,0.5]];portConstraint=eastwest;html=1;" parent="380570418505" vertex="1">
          <mxGeometry y="40" width="170" height="40" as="geometry" />
        </mxCell>
        <mxCell id="276956802099" value="" style="line;whiteSpace=wrap;rounded=0;fillColor=none;strokeColor=inherit;dashed=0;strokeWidth=1;align=left;verticalAlign=middle;spacingTop=-1;spacingLeft=3;spacingRight=3;rotatable=0;labelPosition=right;points=[];portConstraint=eastwest;" parent="380570418505" vertex="1">
          <mxGeometry y="80" width="170" height="2" as="geometry" />
        </mxCell>
        <mxCell id="679966213606" value="+ Enter(): void&lt;br/&gt;+ Update(): void" style="text;whiteSpace=wrap;rounded=0;fillColor=none;strokeColor=none;dashed=0;align=left;verticalAlign=top;spacingLeft=4;spacingRight=4;overflow=hidden;rotatable=0;points=[[0,0.5],[1,0.5]];portConstraint=eastwest;html=1;" parent="380570418505" vertex="1">
          <mxGeometry y="82" width="170" height="48" as="geometry" />
        </mxCell>
        <mxCell id="292300674603" value="IEnemyState" style="swimlane;whiteSpace=wrap;rounded=0;dashed=0;fontStyle=1;childLayout=stackLayout;startSize=40;horizontalStack=0;horizontal=1;resizeParent=1;resizeParentMax=0;resizeLast=0;collapsible=1;marginButtom=0;html=1;align=center;verticalAlign=top;marginBottom=0;fillColor=#fff2cc;strokeColor=#d6b656;" parent="1" vertex="1">
          <mxGeometry x="-175" y="212" width="180" height="120" as="geometry" />
        </mxCell>
        <mxCell id="247294172189" value="+ Enter(): void&lt;br/&gt;+ Exit(): void&lt;br/&gt;+ FixedUpdate(): void&lt;br/&gt;+ Update(): void" style="text;whiteSpace=wrap;rounded=0;fillColor=none;strokeColor=none;dashed=0;align=left;verticalAlign=top;spacingLeft=4;spacingRight=4;overflow=hidden;rotatable=0;points=[[0,0.5],[1,0.5]];portConstraint=eastwest;html=1;" parent="292300674603" vertex="1">
          <mxGeometry y="40" width="180" height="80" as="geometry" />
        </mxCell>
        <mxCell id="208805088760" value="IGameManager" style="swimlane;whiteSpace=wrap;rounded=0;dashed=0;fontStyle=1;childLayout=stackLayout;startSize=40;horizontalStack=0;horizontal=1;resizeParent=1;resizeParentMax=0;resizeLast=0;collapsible=1;marginButtom=0;html=1;align=center;verticalAlign=top;marginBottom=0;fillColor=#dae8fc;strokeColor=#6c8ebf;" parent="1" vertex="1">
          <mxGeometry x="1325" y="-260" width="210" height="152" as="geometry" />
        </mxCell>
        <mxCell id="335183813751" value="+- CurrentState: GameState" style="text;whiteSpace=wrap;rounded=0;fillColor=none;strokeColor=none;dashed=0;align=left;verticalAlign=top;spacingLeft=4;spacingRight=4;overflow=hidden;rotatable=0;points=[[0,0.5],[1,0.5]];portConstraint=eastwest;html=1;" parent="208805088760" vertex="1">
          <mxGeometry y="40" width="210" height="30" as="geometry" />
        </mxCell>
        <mxCell id="137711596132" value="" style="line;whiteSpace=wrap;rounded=0;fillColor=none;strokeColor=inherit;dashed=0;strokeWidth=1;align=left;verticalAlign=middle;spacingTop=-1;spacingLeft=3;spacingRight=3;rotatable=0;labelPosition=right;points=[];portConstraint=eastwest;" parent="208805088760" vertex="1">
          <mxGeometry y="70" width="210" height="2" as="geometry" />
        </mxCell>
        <mxCell id="161872109587" value="+ GameOver(bool isWin): void&lt;br/&gt;+ RestartGame(): void&lt;br/&gt;+ StartGame(): UniTask" style="text;whiteSpace=wrap;rounded=0;fillColor=none;strokeColor=none;dashed=0;align=left;verticalAlign=top;spacingLeft=4;spacingRight=4;overflow=hidden;rotatable=0;points=[[0,0.5],[1,0.5]];portConstraint=eastwest;html=1;" parent="208805088760" vertex="1">
          <mxGeometry y="72" width="210" height="80" as="geometry" />
        </mxCell>
        <mxCell id="305684632399" value="TurretManager&lt;div&gt;&lt;div&gt;&amp;lt;&amp;lt;MonoBehaviour&amp;gt;&amp;gt;&lt;/div&gt;&lt;/div&gt;" style="swimlane;whiteSpace=wrap;rounded=0;dashed=0;fontStyle=1;childLayout=stackLayout;startSize=40;horizontalStack=0;horizontal=1;resizeParent=1;resizeParentMax=0;resizeLast=0;collapsible=1;marginButtom=0;html=1;align=center;verticalAlign=top;marginBottom=0;fillColor=#e1d5e7;strokeColor=#9673a6;" parent="1" vertex="1">
          <mxGeometry x="-1410" y="-792" width="340" height="200" as="geometry" />
        </mxCell>
        <mxCell id="272619629336" value="- inputManager: InputManager&lt;br/&gt;- isGameStarted: bool&lt;br/&gt;- turretController: ITurretController" style="text;whiteSpace=wrap;rounded=0;fillColor=none;strokeColor=none;dashed=0;align=left;verticalAlign=top;spacingLeft=4;spacingRight=4;overflow=hidden;rotatable=0;points=[[0,0.5],[1,0.5]];portConstraint=eastwest;html=1;" parent="305684632399" vertex="1">
          <mxGeometry y="40" width="340" height="60" as="geometry" />
        </mxCell>
        <mxCell id="290711123499" value="" style="line;whiteSpace=wrap;rounded=0;fillColor=none;strokeColor=inherit;dashed=0;strokeWidth=1;align=left;verticalAlign=middle;spacingTop=-1;spacingLeft=3;spacingRight=3;rotatable=0;labelPosition=right;points=[];portConstraint=eastwest;" parent="305684632399" vertex="1">
          <mxGeometry y="100" width="340" height="2" as="geometry" />
        </mxCell>
        <mxCell id="324979939528" value="+ StartGame(): void&lt;br/&gt;- Construct(ITurretController turret, InputManager input): void&lt;br/&gt;- OnDestroy(): void&lt;br/&gt;- OnGameStateChanged(GameState newState): void&lt;br/&gt;- Start(): void&lt;br/&gt;- Update(): void" style="text;whiteSpace=wrap;rounded=0;fillColor=none;strokeColor=none;dashed=0;align=left;verticalAlign=top;spacingLeft=4;spacingRight=4;overflow=hidden;rotatable=0;points=[[0,0.5],[1,0.5]];portConstraint=eastwest;html=1;" parent="305684632399" vertex="1">
          <mxGeometry y="102" width="340" height="98" as="geometry" />
        </mxCell>
        <mxCell id="133717970644" value="InputManager&lt;div&gt;&amp;lt;&amp;lt;MonoBehaviour&amp;gt;&amp;gt;&lt;/div&gt;" style="swimlane;whiteSpace=wrap;rounded=0;dashed=0;fontStyle=1;childLayout=stackLayout;startSize=40;horizontalStack=0;horizontal=1;resizeParent=1;resizeParentMax=0;resizeLast=0;collapsible=1;marginButtom=0;html=1;align=center;verticalAlign=top;marginBottom=0;fillColor=#e1d5e7;strokeColor=#9673a6;" parent="1" vertex="1">
          <mxGeometry x="-1060" y="-1072" width="280" height="280" as="geometry" />
        </mxCell>
        <mxCell id="108924922010" value="+- IsInputActive: bool&lt;br/&gt;- currentInputPosition: Vector2&lt;br/&gt;- groundLayerMask: LayerMask&lt;br/&gt;- isShooting: bool&lt;br/&gt;- mainCamera: Camera" style="text;whiteSpace=wrap;rounded=0;fillColor=none;strokeColor=none;dashed=0;align=left;verticalAlign=top;spacingLeft=4;spacingRight=4;overflow=hidden;rotatable=0;points=[[0,0.5],[1,0.5]];portConstraint=eastwest;html=1;" parent="133717970644" vertex="1">
          <mxGeometry y="40" width="280" height="80" as="geometry" />
        </mxCell>
        <mxCell id="961617393747" value="" style="line;whiteSpace=wrap;rounded=0;fillColor=none;strokeColor=inherit;dashed=0;strokeWidth=1;align=left;verticalAlign=middle;spacingTop=-1;spacingLeft=3;spacingRight=3;rotatable=0;labelPosition=right;points=[];portConstraint=eastwest;" parent="133717970644" vertex="1">
          <mxGeometry y="120" width="280" height="2" as="geometry" />
        </mxCell>
        <mxCell id="337911967278" value="+ DisableInput(): void&lt;br/&gt;+ EnableInput(): void&lt;br/&gt;+ GetDirectionFromCamera(): Vector3&lt;br/&gt;+ GetWorldPosition(): Vector3&lt;br/&gt;+ IsShooting(): bool&lt;br/&gt;- ProcessInput(): void&lt;br/&gt;- ProcessMouseInput(): void&lt;br/&gt;- ProcessTouchInput(): void&lt;br/&gt;- Start(): void&lt;br/&gt;- Update(): void" style="text;whiteSpace=wrap;rounded=0;fillColor=none;strokeColor=none;dashed=0;align=left;verticalAlign=top;spacingLeft=4;spacingRight=4;overflow=hidden;rotatable=0;points=[[0,0.5],[1,0.5]];portConstraint=eastwest;html=1;" parent="133717970644" vertex="1">
          <mxGeometry y="122" width="280" height="158" as="geometry" />
        </mxCell>
        <mxCell id="205108318632" value="ITurretController" style="swimlane;whiteSpace=wrap;rounded=0;dashed=0;fontStyle=1;childLayout=stackLayout;startSize=40;horizontalStack=0;horizontal=1;resizeParent=1;resizeParentMax=0;resizeLast=0;collapsible=1;marginButtom=0;html=1;align=center;verticalAlign=top;marginBottom=0;fillColor=#e1d5e7;strokeColor=#9673a6;" parent="1" vertex="1">
          <mxGeometry x="-1360" y="-970" width="240" height="120" as="geometry" />
        </mxCell>
        <mxCell id="219670206931" value="+- CanShoot: bool" style="text;whiteSpace=wrap;rounded=0;fillColor=none;strokeColor=none;dashed=0;align=left;verticalAlign=top;spacingLeft=4;spacingRight=4;overflow=hidden;rotatable=0;points=[[0,0.5],[1,0.5]];portConstraint=eastwest;html=1;" parent="205108318632" vertex="1">
          <mxGeometry y="40" width="240" height="30" as="geometry" />
        </mxCell>
        <mxCell id="658733348627" value="" style="line;whiteSpace=wrap;rounded=0;fillColor=none;strokeColor=inherit;dashed=0;strokeWidth=1;align=left;verticalAlign=middle;spacingTop=-1;spacingLeft=3;spacingRight=3;rotatable=0;labelPosition=right;points=[];portConstraint=eastwest;" parent="205108318632" vertex="1">
          <mxGeometry y="70" width="240" height="2" as="geometry" />
        </mxCell>
        <mxCell id="353073722263" value="+ Shoot(): UniTask&lt;br&gt;+ UpdateRotation(Vector3 worldPos): void" style="text;whiteSpace=wrap;rounded=0;fillColor=none;strokeColor=none;dashed=0;align=left;verticalAlign=top;spacingLeft=4;spacingRight=4;overflow=hidden;rotatable=0;points=[[0,0.5],[1,0.5]];portConstraint=eastwest;html=1;" parent="205108318632" vertex="1">
          <mxGeometry y="72" width="240" height="48" as="geometry" />
        </mxCell>
        <mxCell id="136843867774" value="LevelManager&lt;div&gt;&amp;lt;&amp;lt;MonoBehaviour&amp;gt;&amp;gt;&lt;/div&gt;" style="swimlane;whiteSpace=wrap;rounded=0;dashed=0;fontStyle=1;childLayout=stackLayout;startSize=40;horizontalStack=0;horizontal=1;resizeParent=1;resizeParentMax=0;resizeLast=0;collapsible=1;marginButtom=0;html=1;align=center;verticalAlign=top;marginBottom=0;fillColor=#dae8fc;strokeColor=#6c8ebf;" parent="1" vertex="1">
          <mxGeometry x="960" y="-1430" width="280" height="202" as="geometry" />
        </mxCell>
        <mxCell id="160295081155" value="- carTransform: Transform&lt;br/&gt;- groundPrefab: Transform&lt;br/&gt;- groundTileLength: float&lt;br/&gt;- groundTiles: Transform[]&lt;br/&gt;- groundTilesCount: int&lt;br/&gt;- nextTileIndex: int&lt;br/&gt;- resetThreshold: float" style="text;whiteSpace=wrap;rounded=0;fillColor=none;strokeColor=none;dashed=0;align=left;verticalAlign=top;spacingLeft=4;spacingRight=4;overflow=hidden;rotatable=0;points=[[0,0.5],[1,0.5]];portConstraint=eastwest;html=1;" parent="136843867774" vertex="1">
          <mxGeometry y="40" width="280" height="80" as="geometry" />
        </mxCell>
        <mxCell id="117049867117" value="" style="line;whiteSpace=wrap;rounded=0;fillColor=none;strokeColor=inherit;dashed=0;strokeWidth=1;align=left;verticalAlign=middle;spacingTop=-1;spacingLeft=3;spacingRight=3;rotatable=0;labelPosition=right;points=[];portConstraint=eastwest;" parent="136843867774" vertex="1">
          <mxGeometry y="120" width="280" height="2" as="geometry" />
        </mxCell>
        <mxCell id="192034533783" value="- Construct(ICarController carController): void&lt;br/&gt;- InitializeGroundTiles(): void&lt;br/&gt;- MoveGroundTileForward(Transform tile): void&lt;br/&gt;- Start(): void&lt;br/&gt;- Update(): void" style="text;whiteSpace=wrap;rounded=0;fillColor=none;strokeColor=none;dashed=0;align=left;verticalAlign=top;spacingLeft=4;spacingRight=4;overflow=hidden;rotatable=0;points=[[0,0.5],[1,0.5]];portConstraint=eastwest;html=1;" parent="136843867774" vertex="1">
          <mxGeometry y="122" width="280" height="80" as="geometry" />
        </mxCell>
        <mxCell id="156589994326" value="TurretController&lt;div&gt;&amp;lt;&amp;lt;MonoBehaviour&amp;gt;&amp;gt;&lt;/div&gt;" style="swimlane;whiteSpace=wrap;rounded=0;dashed=0;fontStyle=1;childLayout=stackLayout;startSize=40;horizontalStack=0;horizontal=1;resizeParent=1;resizeParentMax=0;resizeLast=0;collapsible=1;marginButtom=0;html=1;align=center;verticalAlign=top;marginBottom=0;fillColor=#e1d5e7;strokeColor=#9673a6;" parent="1" vertex="1">
          <mxGeometry x="-720" y="-600" width="300" height="330" as="geometry" />
        </mxCell>
        <mxCell id="208662783800" value="+- CanShoot: bool&lt;br&gt;- bulletConfig: BulletConfig&lt;br&gt;- bulletCount: int&lt;br&gt;- bulletPool: ObjectPool&amp;lt;Bullet&amp;gt;&lt;br&gt;- bulletPrefab: GameObject&lt;br&gt;- bulletSpread: float&lt;br&gt;- lastShootTime: float&lt;br&gt;- mainCamera: Camera&lt;br&gt;- parentForBullets: Transform&lt;br&gt;- rotationSpeed: float&lt;br&gt;- shootPoint: Transform&lt;br&gt;- turretLight: GameObject&lt;br&gt;- turretPivot: Transform" style="text;whiteSpace=wrap;rounded=0;fillColor=none;strokeColor=none;dashed=0;align=left;verticalAlign=top;spacingLeft=4;spacingRight=4;overflow=hidden;rotatable=0;points=[[0,0.5],[1,0.5]];portConstraint=eastwest;html=1;" parent="156589994326" vertex="1">
          <mxGeometry y="40" width="300" height="200" as="geometry" />
        </mxCell>
        <mxCell id="245975740129" value="" style="line;whiteSpace=wrap;rounded=0;fillColor=none;strokeColor=inherit;dashed=0;strokeWidth=1;align=left;verticalAlign=middle;spacingTop=-1;spacingLeft=3;spacingRight=3;rotatable=0;labelPosition=right;points=[];portConstraint=eastwest;" parent="156589994326" vertex="1">
          <mxGeometry y="240" width="300" height="2" as="geometry" />
        </mxCell>
        <mxCell id="660022975570" value="+ Shoot(): UniTask&lt;br/&gt;+ UpdateRotation(Vector2 inputPosition): void&lt;br/&gt;- Construct(BulletConfig config, IObjectResolver resolver, InputManager inputMgr): void&lt;br/&gt;- Start(): void" style="text;whiteSpace=wrap;rounded=0;fillColor=none;strokeColor=none;dashed=0;align=left;verticalAlign=top;spacingLeft=4;spacingRight=4;overflow=hidden;rotatable=0;points=[[0,0.5],[1,0.5]];portConstraint=eastwest;html=1;" parent="156589994326" vertex="1">
          <mxGeometry y="242" width="300" height="88" as="geometry" />
        </mxCell>
        <mxCell id="273985926109" value="UIManager&lt;div&gt;&amp;lt;&amp;lt;MonoBehaviour&amp;gt;&amp;gt;&lt;/div&gt;" style="swimlane;whiteSpace=wrap;rounded=0;dashed=0;fontStyle=1;childLayout=stackLayout;startSize=40;horizontalStack=0;horizontal=1;resizeParent=1;resizeParentMax=0;resizeLast=0;collapsible=1;marginButtom=0;html=1;align=center;verticalAlign=top;marginBottom=0;fillColor=#d5e8d4;strokeColor=#82b366;" parent="1" vertex="1">
          <mxGeometry x="1790" y="140" width="370" height="360" as="geometry" />
        </mxCell>
        <mxCell id="886928124871" value="- bulletCountText: TextMeshProUGUI&lt;br/&gt;- carHealthUI: CarHealthUI&lt;br/&gt;- gameManager: IGameManager&lt;br/&gt;- gameOverScreen: GameObject&lt;br/&gt;- gameplayUI: GameObject&lt;br/&gt;- menuScreen: GameObject&lt;br/&gt;- restartInLoseWindowButton: Button&lt;br/&gt;- restartInWinWindowButton: Button&lt;br/&gt;- startButton: Button&lt;br/&gt;- winScreen: GameObject" style="text;whiteSpace=wrap;rounded=0;fillColor=none;strokeColor=none;dashed=0;align=left;verticalAlign=top;spacingLeft=4;spacingRight=4;overflow=hidden;rotatable=0;points=[[0,0.5],[1,0.5]];portConstraint=eastwest;html=1;" parent="273985926109" vertex="1">
          <mxGeometry y="40" width="370" height="160" as="geometry" />
        </mxCell>
        <mxCell id="178343899878" value="" style="line;whiteSpace=wrap;rounded=0;fillColor=none;strokeColor=inherit;dashed=0;strokeWidth=1;align=left;verticalAlign=middle;spacingTop=-1;spacingLeft=3;spacingRight=3;rotatable=0;labelPosition=right;points=[];portConstraint=eastwest;" parent="273985926109" vertex="1">
          <mxGeometry y="200" width="370" height="2" as="geometry" />
        </mxCell>
        <mxCell id="330910686834" value="- Construct(IGameManager manager, CarConfig carConfig): void&lt;br/&gt;- OnBulletCountChanged(int count): void&lt;br/&gt;- OnDestroy(): void&lt;br/&gt;- OnGameStateChanged(GameState newState): void&lt;br/&gt;- SetupButtons(): void&lt;br/&gt;- ShowGameOverScreen(): void&lt;br/&gt;- ShowGameplayUI(): void&lt;br/&gt;- ShowMenuScreen(): void&lt;br/&gt;- ShowWinScreen(): void&lt;br/&gt;- Start(): void" style="text;whiteSpace=wrap;rounded=0;fillColor=none;strokeColor=none;dashed=0;align=left;verticalAlign=top;spacingLeft=4;spacingRight=4;overflow=hidden;rotatable=0;points=[[0,0.5],[1,0.5]];portConstraint=eastwest;html=1;" parent="273985926109" vertex="1">
          <mxGeometry y="202" width="370" height="158" as="geometry" />
        </mxCell>
        <mxCell id="190562269768" value="Extends" style="endArrow=block;endSize=16;endFill=0;html=1;rounded=0;" parent="1" source="210996011825" target="169417324144" vertex="1" edge="1">
          <mxGeometry width="160" relative="1" as="geometry">
            <mxPoint as="sourcePoint" />
            <mxPoint as="targetPoint" />
          </mxGeometry>
        </mxCell>
        <mxCell id="362655775428" value="Extends" style="endArrow=block;endSize=16;endFill=0;html=1;rounded=0;" parent="1" source="511043860435" target="169417324144" vertex="1" edge="1">
          <mxGeometry width="160" relative="1" as="geometry">
            <mxPoint as="sourcePoint" />
            <mxPoint as="targetPoint" />
          </mxGeometry>
        </mxCell>
        <mxCell id="149732508633" value="Extends" style="endArrow=block;endSize=16;endFill=0;html=1;rounded=0;" parent="1" source="380570418505" target="169417324144" vertex="1" edge="1">
          <mxGeometry width="160" relative="1" as="geometry">
            <mxPoint as="sourcePoint" />
            <mxPoint as="targetPoint" />
          </mxGeometry>
        </mxCell>
        <mxCell id="439518416527" value="" style="curved=1;endArrow=classic;html=1;rounded=0;" parent="1" source="817786290282" target="323832051178" vertex="1" edge="1">
          <mxGeometry width="50" height="50" relative="1" as="geometry">
            <mxPoint as="sourcePoint" />
            <mxPoint as="targetPoint" />
          </mxGeometry>
        </mxCell>
        <mxCell id="152659543382" value="" style="curved=1;endArrow=classic;html=1;rounded=0;" parent="1" source="128960648202" target="203980319369" vertex="1" edge="1">
          <mxGeometry width="50" height="50" relative="1" as="geometry">
            <mxPoint as="sourcePoint" />
            <mxPoint as="targetPoint" />
          </mxGeometry>
        </mxCell>
        <mxCell id="246595841642" value="" style="curved=1;endArrow=classic;html=1;rounded=0;" parent="1" source="872615278412" target="102489454053" vertex="1" edge="1">
          <mxGeometry width="50" height="50" relative="1" as="geometry">
            <mxPoint as="sourcePoint" />
            <mxPoint as="targetPoint" />
          </mxGeometry>
        </mxCell>
        <mxCell id="229205199362" value="" style="curved=1;endArrow=classic;html=1;rounded=0;" parent="1" source="872615278412" target="292300674603" vertex="1" edge="1">
          <mxGeometry width="50" height="50" relative="1" as="geometry">
            <mxPoint as="sourcePoint" />
            <mxPoint as="targetPoint" />
          </mxGeometry>
        </mxCell>
        <mxCell id="160293380912" value="" style="curved=1;endArrow=classic;html=1;rounded=0;" parent="1" source="872615278412" target="102543871915" vertex="1" edge="1">
          <mxGeometry width="50" height="50" relative="1" as="geometry">
            <mxPoint as="sourcePoint" />
            <mxPoint as="targetPoint" />
          </mxGeometry>
        </mxCell>
        <mxCell id="519761182582" value="" style="curved=1;endArrow=classic;html=1;rounded=0;" parent="1" source="189912781963" target="102489454053" vertex="1" edge="1">
          <mxGeometry width="50" height="50" relative="1" as="geometry">
            <mxPoint as="sourcePoint" />
            <mxPoint as="targetPoint" />
          </mxGeometry>
        </mxCell>
        <mxCell id="325991982704" value="" style="curved=1;endArrow=classic;html=1;rounded=0;" parent="1" source="189912781963" target="872615278412" vertex="1" edge="1">
          <mxGeometry width="50" height="50" relative="1" as="geometry">
            <mxPoint as="sourcePoint" />
            <mxPoint as="targetPoint" />
          </mxGeometry>
        </mxCell>
        <mxCell id="144144294877" value="" style="curved=1;endArrow=classic;html=1;rounded=0;" parent="1" source="189912781963" target="162779053042" vertex="1" edge="1">
          <mxGeometry width="50" height="50" relative="1" as="geometry">
            <mxPoint as="sourcePoint" />
            <mxPoint as="targetPoint" />
          </mxGeometry>
        </mxCell>
        <mxCell id="130762564592" value="" style="curved=1;endArrow=classic;html=1;rounded=0;" parent="1" source="301850197979" target="106280521368" vertex="1" edge="1">
          <mxGeometry width="50" height="50" relative="1" as="geometry">
            <mxPoint as="sourcePoint" />
            <mxPoint as="targetPoint" />
          </mxGeometry>
        </mxCell>
        <mxCell id="321081449523" value="" style="curved=1;endArrow=classic;html=1;rounded=0;" parent="1" source="218585585927" target="211703641504" vertex="1" edge="1">
          <mxGeometry width="50" height="50" relative="1" as="geometry">
            <mxPoint as="sourcePoint" />
            <mxPoint as="targetPoint" />
          </mxGeometry>
        </mxCell>
        <mxCell id="544000054509" value="" style="curved=1;endArrow=classic;html=1;rounded=0;" parent="1" source="218585585927" target="203980319369" vertex="1" edge="1">
          <mxGeometry width="50" height="50" relative="1" as="geometry">
            <mxPoint as="sourcePoint" />
            <mxPoint as="targetPoint" />
          </mxGeometry>
        </mxCell>
        <mxCell id="590204507942" value="" style="curved=1;endArrow=classic;html=1;rounded=0;" parent="1" source="218585585927" target="102489454053" vertex="1" edge="1">
          <mxGeometry width="50" height="50" relative="1" as="geometry">
            <mxPoint as="sourcePoint" />
            <mxPoint as="targetPoint" />
          </mxGeometry>
        </mxCell>
        <mxCell id="110014553595" value="" style="curved=1;endArrow=classic;html=1;rounded=0;" parent="1" source="218585585927" target="162779053042" vertex="1" edge="1">
          <mxGeometry width="50" height="50" relative="1" as="geometry">
            <mxPoint as="sourcePoint" />
            <mxPoint as="targetPoint" />
          </mxGeometry>
        </mxCell>
        <mxCell id="181945023035" value="" style="curved=1;endArrow=classic;html=1;rounded=0;" parent="1" source="218585585927" target="133717970644" vertex="1" edge="1">
          <mxGeometry width="50" height="50" relative="1" as="geometry">
            <mxPoint as="sourcePoint" />
            <mxPoint as="targetPoint" />
            <Array as="points">
              <mxPoint x="-230" y="-1180" />
            </Array>
          </mxGeometry>
        </mxCell>
        <mxCell id="200641018305" value="" style="curved=1;endArrow=classic;html=1;rounded=0;" parent="1" source="179958343129" target="106280521368" vertex="1" edge="1">
          <mxGeometry width="50" height="50" relative="1" as="geometry">
            <mxPoint as="sourcePoint" />
            <mxPoint as="targetPoint" />
          </mxGeometry>
        </mxCell>
        <mxCell id="789885552857" value="" style="curved=1;endArrow=classic;html=1;rounded=0;" parent="1" source="179958343129" target="242344450681" vertex="1" edge="1">
          <mxGeometry width="50" height="50" relative="1" as="geometry">
            <mxPoint as="sourcePoint" />
            <mxPoint as="targetPoint" />
          </mxGeometry>
        </mxCell>
        <mxCell id="124346934761" value="" style="curved=1;endArrow=classic;html=1;rounded=0;" parent="1" source="179958343129" target="251258246801" vertex="1" edge="1">
          <mxGeometry width="50" height="50" relative="1" as="geometry">
            <mxPoint as="sourcePoint" />
            <mxPoint as="targetPoint" />
            <Array as="points">
              <mxPoint x="850" y="-90" />
            </Array>
          </mxGeometry>
        </mxCell>
        <mxCell id="651051941743" value="" style="curved=1;endArrow=classic;html=1;rounded=0;" parent="1" source="179958343129" target="189912781963" vertex="1" edge="1">
          <mxGeometry width="50" height="50" relative="1" as="geometry">
            <mxPoint as="sourcePoint" />
            <mxPoint as="targetPoint" />
          </mxGeometry>
        </mxCell>
        <mxCell id="897363755509" value="" style="curved=1;endArrow=classic;html=1;rounded=0;" parent="1" source="179958343129" target="162779053042" vertex="1" edge="1">
          <mxGeometry width="50" height="50" relative="1" as="geometry">
            <mxPoint as="sourcePoint" />
            <mxPoint as="targetPoint" />
          </mxGeometry>
        </mxCell>
        <mxCell id="175322555777" value="" style="curved=1;endArrow=classic;html=1;rounded=0;" parent="1" source="179958343129" target="305684632399" vertex="1" edge="1">
          <mxGeometry width="50" height="50" relative="1" as="geometry">
            <mxPoint as="sourcePoint" />
            <mxPoint as="targetPoint" />
            <Array as="points">
              <mxPoint y="-710" />
            </Array>
          </mxGeometry>
        </mxCell>
        <mxCell id="226132507403" value="" style="curved=1;endArrow=classic;html=1;rounded=0;" parent="1" source="208805088760" target="106280521368" vertex="1" edge="1">
          <mxGeometry width="50" height="50" relative="1" as="geometry">
            <mxPoint as="sourcePoint" />
            <mxPoint as="targetPoint" />
          </mxGeometry>
        </mxCell>
        <mxCell id="232792471394" value="" style="curved=1;endArrow=classic;html=1;rounded=0;" parent="1" source="305684632399" target="133717970644" vertex="1" edge="1">
          <mxGeometry width="50" height="50" relative="1" as="geometry">
            <mxPoint as="sourcePoint" />
            <mxPoint as="targetPoint" />
          </mxGeometry>
        </mxCell>
        <mxCell id="282636156844" value="" style="curved=1;endArrow=classic;html=1;rounded=0;" parent="1" source="305684632399" target="205108318632" vertex="1" edge="1">
          <mxGeometry width="50" height="50" relative="1" as="geometry">
            <mxPoint as="sourcePoint" />
            <mxPoint as="targetPoint" />
          </mxGeometry>
        </mxCell>
        <mxCell id="142132960431" value="" style="curved=1;endArrow=classic;html=1;rounded=0;" parent="1" source="156589994326" target="211703641504" vertex="1" edge="1">
          <mxGeometry width="50" height="50" relative="1" as="geometry">
            <mxPoint as="sourcePoint" />
            <mxPoint as="targetPoint" />
          </mxGeometry>
        </mxCell>
        <mxCell id="203915201765" value="" style="curved=1;endArrow=classic;html=1;rounded=0;" parent="1" source="156589994326" target="199838551147" vertex="1" edge="1">
          <mxGeometry width="50" height="50" relative="1" as="geometry">
            <mxPoint as="sourcePoint" />
            <mxPoint as="targetPoint" />
          </mxGeometry>
        </mxCell>
        <mxCell id="120824985925" value="" style="curved=1;endArrow=classic;html=1;rounded=0;" parent="1" source="273985926109" target="328420183566" vertex="1" edge="1">
          <mxGeometry width="50" height="50" relative="1" as="geometry">
            <mxPoint as="sourcePoint" />
            <mxPoint as="targetPoint" />
          </mxGeometry>
        </mxCell>
        <mxCell id="862950100054" value="" style="curved=1;endArrow=classic;html=1;rounded=0;" parent="1" source="273985926109" target="208805088760" vertex="1" edge="1">
          <mxGeometry width="50" height="50" relative="1" as="geometry">
            <mxPoint as="sourcePoint" />
            <mxPoint as="targetPoint" />
          </mxGeometry>
        </mxCell>
        <mxCell id="m6soFU7naQQyQJeyBjZA-986258307856" value="Extends" style="endArrow=block;endSize=16;endFill=0;html=1;rounded=0;" parent="1" source="169417324144" target="292300674603" edge="1">
          <mxGeometry width="160" relative="1" as="geometry">
            <mxPoint x="-120" y="380" as="sourcePoint" />
            <mxPoint x="40" y="380" as="targetPoint" />
          </mxGeometry>
        </mxCell>
        <mxCell id="m6soFU7naQQyQJeyBjZA-986258307857" value="&lt;font style=&quot;font-size: 38px;&quot;&gt;Car / Turret&lt;/font&gt;" style="rounded=0;whiteSpace=wrap;html=1;fillColor=#e1d5e7;strokeColor=#9673a6;" parent="1" vertex="1">
          <mxGeometry x="-1430" y="-1658" width="480" height="60" as="geometry" />
        </mxCell>
        <mxCell id="m6soFU7naQQyQJeyBjZA-986258307858" value="&lt;span style=&quot;font-size: 38px;&quot;&gt;Enemy&lt;/span&gt;" style="rounded=0;whiteSpace=wrap;html=1;fillColor=#f8cecc;strokeColor=#b85450;" parent="1" vertex="1">
          <mxGeometry x="-1430" y="-1568" width="480" height="60" as="geometry" />
        </mxCell>
        <mxCell id="m6soFU7naQQyQJeyBjZA-986258307859" value="&lt;span style=&quot;font-size: 38px;&quot;&gt;UI&lt;/span&gt;" style="rounded=0;whiteSpace=wrap;html=1;fillColor=#d5e8d4;strokeColor=#82b366;" parent="1" vertex="1">
          <mxGeometry x="-1430" y="-1480" width="480" height="60" as="geometry" />
        </mxCell>
        <mxCell id="m6soFU7naQQyQJeyBjZA-986258307860" value="&lt;span style=&quot;font-size: 38px;&quot;&gt;Core&lt;/span&gt;" style="rounded=0;whiteSpace=wrap;html=1;fillColor=#dae8fc;strokeColor=#6c8ebf;" parent="1" vertex="1">
          <mxGeometry x="-1430" y="-1390" width="480" height="60" as="geometry" />
        </mxCell>
        <mxCell id="m6soFU7naQQyQJeyBjZA-986258307861" value="&lt;span style=&quot;font-size: 38px;&quot;&gt;Camera&lt;/span&gt;" style="rounded=0;whiteSpace=wrap;html=1;fillColor=#f5f5f5;strokeColor=#666666;fontColor=#333333;" parent="1" vertex="1">
          <mxGeometry x="-1430" y="-1300" width="480" height="60" as="geometry" />
        </mxCell>
      </root>
    </mxGraphModel>
  </diagram>
</mxfile>
